<?xml version="1.0" encoding="UTF-8"?>
<svg id="Capa_1" data-name="Capa 1" xmlns="http://www.w3.org/2000/svg" viewBox="0 0 1000 1000">
  <defs>
    <style>
      .cls-1 {
        fill: #fce792;
      }

      .cls-1, .cls-2, .cls-3, .cls-4, .cls-5, .cls-6, .cls-7, .cls-8, .cls-9, .cls-10, .cls-11, .cls-12, .cls-13, .cls-14, .cls-15, .cls-16 {
        stroke-width: 0px;
      }

      .cls-2 {
        fill: #fefefe;
      }

      .cls-3 {
        fill: #fdfefe;
      }

      .cls-4 {
        fill: #f9fafa;
      }

      .cls-5 {
        fill: #010101;
      }

      .cls-6 {
        fill: #808b8b;
      }

      .cls-7 {
        fill: gold;
      }

      .cls-9 {
        fill: #ebeded;
      }

      .cls-10 {
        fill: #010100;
      }

      .cls-11 {
        fill: #dd9219;
      }

      .cls-12 {
        fill: #ffe45f;
      }

      .cls-13 {
        fill: #e6eded;
      }

      .cls-14 {
        fill: #f2f4f4;
      }

      .cls-15 {
        fill: #010000;
      }

      .cls-16 {
        fill: #020101;
      }
    </style>
  </defs>
  <path class="cls-2" d="m188.73,214.58c-.53-1.97.46-3.16,2.51-2.95.73.08,1.45.38,2.18.57,30.77,8.2,61.54,16.4,92.31,24.59,21.32,5.67,42.66,11.29,63.97,17,4.11,1.11,8.15,2.49,12.21,3.8,1.85.59,1.96,1.07.5,2.41-1.11,1.01-2.34,1.89-3.58,2.75-10.24,7.26-20.31,14.74-29.95,22.8-17.57,14.68-32.23,31.98-45.64,50.42-8.87,12.19-17.4,24.57-24.12,38.14-1.63,3.31-3.44,6.62-6.21,9.34-12.53-32.9-24.98-65.54-37.39-98.18-8.69-22.85-17.34-45.72-26-68.58-.26-.71-.58-1.4-.78-2.12Z"/>
  <path class="cls-2" d="m381.19,727.13c-.13,1.2-1.15,1.46-2.16,1.76-8.39,2.55-16.78,5.11-25.16,7.74-43.99,13.85-87.98,27.72-131.98,41.55-3.71,1.17-7.46,2.17-11.22,3.15-1.93.5-3.89,1.02-6.27.48,7.01-20.19,13.94-40.08,20.82-59.97,8.82-25.46,17.59-50.95,26.44-76.41,2.97-8.53,5.98-17.04,9.6-25.32.64-1.47,1.01-3.65,2.62-3.82,1.67-.17,2.33,2.01,3.22,3.3,17.97,26.05,38.9,49.57,61.72,71.41,13.69,13.1,29.03,23.94,46.27,31.94,1.37.64,2.76,1.21,4.15,1.78,1.11.45,2.1,1.05,1.95,2.41Z"/>
  <path class="cls-2" d="m584.72,744.7c-.48,2.75-1.59,4.85-2.63,6.98-7.84,16.02-16.4,31.65-24.85,47.35-19.1,35.48-38.29,70.91-57.44,106.36-.3.55-.53,1.15-.9,1.65-.89,1.16-2.03,1.14-2.82.06-.96-1.3-1.67-2.79-2.4-4.25-19.63-39.29-39.25-78.59-58.88-117.87-5.27-10.55-10.6-21.08-15.85-31.65-1.06-2.13-2.02-4.32-2.81-6.57-1.27-3.59-.84-4.09,2.76-3.4,3.82.75,7.63,1.54,11.43,2.39,13.84,3.1,27.72,6.05,41.83,7.61,14.27,1.58,28.59,1.48,42.91.66,19.61-1.14,38.89-4.52,58.13-8.24,3.66-.71,7.33-1.73,11.51-1.09Z"/>
  <path class="cls-2" d="m415.44,235.62c.22-.71.62-1.37.94-2.05,23.73-49.44,46.75-99.21,69.95-148.9,1.91-4.09,3.83-8.2,6.34-11.97,1.84-2.77,2.46-2.73,4.02.12,19,34.82,38.16,69.55,56.7,104.62,9.74,18.42,19.59,36.78,29.52,55.11.98,1.81.98,3.71,1.67,6.02-12.7-3.04-25.03-5.77-37.51-7.75-23.03-3.65-46.16-5-69.47-3.69-15.61.87-30.88,3.69-46.03,7.34-4.74,1.15-9.71,1.23-14.27,3.25-1.41.63-2.36-.54-1.87-2.1Z"/>
  <path class="cls-2" d="m630.96,682.61c-1.23.87-2.46,1.75-3.68,2.62.94,2.09-1.1,2.21-2.03,2.79-23.15,14.3-47.56,25.35-74.76,29.41-12.16,1.82-24.2,4.34-36.47,5.53-13.53,1.31-27.04,1.6-40.61.71-15.99-1.05-31.62-3.82-46.81-8.87-30.06-9.97-56.83-25.76-80.63-46.58-17.09-14.95-32.48-31.46-44.84-50.6-.92-1.42-2.04-2.05-3.6-2.33-3.33-.62-6.6-1.54-9.81-2.6-6.51-2.16-11.74-6.15-16.11-11.34-3.02-3.56-3.96-7.75-3.74-12.3.33-6.89,2.55-13.28,5.19-19.54.93-2.2,2.02-4.32,2.95-6.51.88-2.07.78-2.39-1.34-2.87-4.03-.92-8.11-1.69-12.17-2.51-3.2-.64-6.41-1.19-9.59-1.88-4.34-.95-8.23-2.81-11.78-6.28,1.65,7.32,4.05,13.91,6.07,20.62.51,1.69,1.1,3.35.38,5.53-55-28.17-110.92-54.41-165.32-83.76.56-1.72,1.99-2.1,3.11-2.77,9.26-5.54,18.89-10.43,28.54-15.24,32.01-15.91,63.52-32.83,95.37-49.05,4.02-2.05,8.11-3.97,12.37-5.48.9-.33,1.47-.68,1.91-1.49,2.88-5.28,7.09-9.4,11.75-13.07,17.49-13.78,37.31-22.47,59.09-26.77,1.97-.39,2.99-1.24,3.85-2.99,4.16-8.59,8.59-17.03,13.71-25.1,8.8-13.85,20.48-25.04,32.8-35.63,27.86-23.96,59.82-40.19,94.96-50.61,22.99-6.81,46.39-9.88,70.29-8.96,19.34.74,38.08,4.77,56.32,11.12,24.97,8.69,48.92,19.59,70.86,34.46,24.84,16.83,44.17,38.83,60.11,64.13,17.71,28.13,28.19,58.65,32.53,91.48,2.14,16.13,2.68,32.3,1.92,48.49-.62,12.95-3.36,25.6-6.63,38.13-12.36,47.38-36.63,87.76-71.68,121.77-6.95,6.75-14.59,12.7-22.46,18.34Z"/>
  <path class="cls-2" d="m621.9,253.79c.1-1.11,1.01-1.29,1.85-1.58,7.59-2.62,15.16-5.26,22.75-7.88,45.14-15.6,90.32-31.06,135.21-47.35,4.35-1.58,8.71-3.17,13.33-3.92,1.45-.24,2.65-1.95,4.45-.62-2.13,10.77-5.54,21.25-8.83,31.74-10.14,32.3-19.75,64.76-28.6,97.44-4.82,17.8-11.2,35.12-17.7,52.38-.84,2.22-1.55,4.5-2.28,6.76-.24.75-.43,1.48-1.44,1.33-.67-.1-.98-.5-1.29-1.13-8.84-17.89-18.4-35.35-31.05-50.94-7.75-9.55-15.08-19.46-23.77-28.22-16.27-16.41-34.41-30.4-54.39-42.01-2.28-1.32-4.47-2.77-6.76-4.07-.82-.46-1.56-.86-1.46-1.92Z"/>
  <path class="cls-2" d="m816.73,760.9c.32.83,1.42,1.65.3,2.68-.93.86-1.89.23-2.84.01-5.86-1.36-11.73-2.7-17.58-4.1-44.87-10.72-89.75-21.43-134.61-32.2-8.4-2.02-16.85-3.91-25.05-6.71-.85-.29-1.62-.64-2.6-1.31,2.88-2.03,5.42-3.85,7.98-5.64,42.26-29.43,74.24-67.53,96.1-114.15,1.17-2.5,2.37-4.97,3.6-7.44.43-.86.62-1.94,1.98-1.96,1.5-.02,1.83,1.09,2.27,2.12,3.6,8.42,7.25,16.81,10.79,25.26,17.86,42.55,35.7,85.11,53.51,127.67,2.17,5.2,4.13,10.5,6.14,15.77Z"/>
  <path class="cls-2" d="m916.49,483.02c-.94.62-1.99,1.06-2.98,1.6-52.68,29.12-105.61,57.79-157.8,87.8-1.71.98-3.35,2.24-5.75,1.7-.41-2.61.52-4.72,1.15-6.85,2.53-8.53,5.57-16.9,7.32-25.67,2.23-11.22,3.64-22.53,4.3-33.94.34-5.89.5-11.79.67-17.68.68-24.05-3.13-47.51-9.24-70.66-1.28-4.83-2.29-9.76-4.07-14.46-.44-1.15-.38-2.43.07-3.9,11.63,5.48,23.2,10.85,34.72,16.38,35.82,17.18,71.87,33.9,107.91,50.64,7.95,3.69,15.84,7.55,23.47,11.91,1.89,1.08,2.01,1.98.24,3.15Z"/>
  <path class="cls-15" d="m731.73,504.37c-.62,12.95-3.36,25.6-6.63,38.13-12.36,47.38-36.63,87.76-71.68,121.77-6.95,6.75-14.59,12.7-22.46,18.34-1.23.87-2.46,1.75-3.68,2.62.94,2.09-1.1,2.21-2.03,2.79-23.15,14.3-47.56,25.35-74.76,29.41-12.16,1.82-24.2,4.34-36.47,5.53-13.53,1.31-27.04,1.6-40.61.71-15.99-1.05-31.62-3.82-46.81-8.87-30.06-9.97-56.83-25.76-80.63-46.58-17.09-14.95-32.48-31.46-44.84-50.6-.92-1.42-2.04-2.05-3.6-2.33-3.33-.62-6.6-1.54-9.81-2.6-6.51-2.16-11.74-6.15-16.11-11.34-3.02-3.56-3.96-7.75-3.74-12.3.33-6.89,2.55-13.28,5.19-19.54.93-2.2,2.02-4.32,2.95-6.51.88-2.07.78-2.39-1.34-2.87-4.03-.92-8.11-1.69-12.17-2.51-3.2-.64-6.41-1.19-9.59-1.88-4.34-.95-8.23-2.81-11.78-6.28,1.65,7.32,4.05,13.91,6.07,20.62.51,1.69,1.1,3.35.38,5.53-55-28.17-110.92-54.41-165.32-83.76.56-1.72,1.99-2.1,3.11-2.77,9.26-5.54,18.89-10.43,28.54-15.24,32.01-15.91,63.52-32.83,95.37-49.05,4.02-2.05,8.11-3.97,12.37-5.48.9-.33,1.47-.68,1.91-1.49,2.88-5.28,7.09-9.4,11.75-13.07,17.49-13.78,37.31-22.47,59.09-26.77,1.97-.39,2.99-1.24,3.85-2.99,4.16-8.59,8.59-17.03,13.71-25.1,8.8-13.85,20.48-25.04,32.8-35.63,27.86-23.96,59.82-40.19,94.96-50.61,22.99-6.81,46.39-9.88,70.29-8.96,19.34.74,38.08,4.77,56.32,11.12,24.97,8.69,48.92,19.59,70.86,34.46,24.84,16.83,44.17,38.83,60.11,64.13,17.71,28.13,28.19,58.65,32.53,91.48,2.14,16.13,2.68,32.3,1.92,48.49Z"/>
  <path class="cls-10" d="m817.03,763.58c-.93.86-1.89.23-2.84.01-5.86-1.36-11.73-2.7-17.58-4.1-44.87-10.72-89.75-21.43-134.61-32.2-8.4-2.02-16.85-3.91-25.05-6.71-.85-.29-1.62-.64-2.6-1.31,2.88-2.03,5.42-3.85,7.98-5.64,42.26-29.43,74.24-67.53,96.1-114.15,1.17-2.5,2.37-4.97,3.6-7.44.43-.86.62-1.94,1.98-1.96,1.5-.02,1.83,1.09,2.27,2.12,3.6,8.42,7.25,16.81,10.79,25.26,17.86,42.55,35.7,85.11,53.51,127.67,2.17,5.2,4.13,10.5,6.14,15.77.32.83,1.42,1.65.3,2.68Z"/>
  <path class="cls-5" d="m916.49,483.02c-.94.62-1.99,1.06-2.98,1.6-52.68,29.12-105.61,57.79-157.8,87.8-1.71.98-3.35,2.24-5.75,1.7-.41-2.61.52-4.72,1.15-6.85,2.53-8.53,5.57-16.9,7.32-25.67,2.23-11.22,3.64-22.53,4.3-33.94.34-5.89.5-11.79.67-17.68.68-24.05-3.13-47.51-9.24-70.66-1.28-4.83-2.29-9.76-4.07-14.46-.44-1.15-.38-2.43.07-3.9,11.63,5.48,23.2,10.85,34.72,16.38,35.82,17.18,71.87,33.9,107.91,50.64,7.95,3.69,15.84,7.55,23.47,11.91,1.89,1.08,2.01,1.98.24,3.15Z"/>
  <path class="cls-5" d="m584.59,238.57c-12.7-3.04-25.03-5.77-37.51-7.75-23.03-3.65-46.16-5-69.47-3.69-15.61.87-30.88,3.69-46.03,7.34-4.74,1.15-9.71,1.23-14.27,3.25-1.41.63-2.36-.54-1.87-2.1.22-.71.62-1.37.94-2.05,23.73-49.44,46.75-99.21,69.95-148.9,1.91-4.09,3.83-8.2,6.34-11.97,1.84-2.77,2.46-2.73,4.02.12,19,34.82,38.16,69.55,56.7,104.62,9.74,18.42,19.59,36.78,29.52,55.11.98,1.81.98,3.71,1.67,6.02Z"/>
  <path class="cls-5" d="m799.48,192.43c-2.13,10.77-5.54,21.25-8.83,31.74-10.14,32.3-19.75,64.76-28.6,97.44-4.82,17.8-11.2,35.12-17.7,52.38-.84,2.22-1.55,4.5-2.28,6.76-.24.75-.43,1.48-1.44,1.33-.67-.1-.98-.5-1.29-1.13-8.84-17.89-18.4-35.35-31.05-50.94-7.75-9.55-15.08-19.46-23.77-28.22-16.27-16.41-34.41-30.4-54.39-42.01-2.28-1.32-4.47-2.77-6.76-4.07-.82-.46-1.56-.86-1.46-1.92.1-1.11,1.01-1.29,1.85-1.58,7.59-2.62,15.16-5.26,22.75-7.88,45.14-15.6,90.32-31.06,135.21-47.35,4.35-1.58,8.71-3.17,13.33-3.92,1.45-.24,2.65-1.95,4.45-.62Z"/>
  <path class="cls-5" d="m584.72,744.7c-.48,2.75-1.59,4.85-2.63,6.98-7.84,16.02-16.4,31.65-24.85,47.35-19.1,35.48-38.29,70.91-57.44,106.36-.3.55-.53,1.15-.9,1.65-.89,1.16-2.03,1.14-2.82.06-.96-1.3-1.67-2.79-2.4-4.25-19.63-39.29-39.25-78.59-58.88-117.87-5.27-10.55-10.6-21.08-15.85-31.65-1.06-2.13-2.02-4.32-2.81-6.57-1.27-3.59-.84-4.09,2.76-3.4,3.82.75,7.63,1.54,11.43,2.39,13.84,3.1,27.72,6.05,41.83,7.61,14.27,1.58,28.59,1.48,42.91.66,19.61-1.14,38.89-4.52,58.13-8.24,3.66-.71,7.33-1.73,11.51-1.09Z"/>
  <path class="cls-5" d="m362.4,259.99c-1.11,1.01-2.34,1.89-3.58,2.75-10.24,7.26-20.31,14.74-29.95,22.8-17.57,14.68-32.23,31.98-45.64,50.42-8.87,12.19-17.4,24.57-24.12,38.14-1.63,3.31-3.44,6.62-6.21,9.34-12.53-32.9-24.98-65.54-37.39-98.18-8.69-22.85-17.34-45.72-26-68.58-.26-.71-.58-1.4-.78-2.12-.53-1.97.46-3.16,2.51-2.95.73.08,1.45.38,2.18.57,30.77,8.2,61.54,16.4,92.31,24.59,21.32,5.67,42.66,11.29,63.97,17,4.11,1.11,8.15,2.49,12.21,3.8,1.85.59,1.96,1.07.5,2.41Z"/>
  <path class="cls-16" d="m381.19,727.13c-.13,1.2-1.15,1.46-2.16,1.76-8.39,2.55-16.78,5.11-25.16,7.74-43.99,13.85-87.98,27.72-131.98,41.55-3.71,1.17-7.46,2.17-11.22,3.15-1.93.5-3.89,1.02-6.27.48,7.01-20.19,13.94-40.08,20.82-59.97,8.82-25.46,17.59-50.95,26.44-76.41,2.97-8.53,5.98-17.04,9.6-25.32.64-1.47,1.01-3.65,2.62-3.82,1.67-.17,2.33,2.01,3.22,3.3,17.97,26.05,38.9,49.57,61.72,71.41,13.69,13.1,29.03,23.94,46.27,31.94,1.37.64,2.76,1.21,4.15,1.78,1.11.45,2.1,1.05,1.95,2.41Z"/>
  <path class="cls-7" d="m294.95,384.13c1.72-1.77,2.87-3.62,4.9-4.58.43-.2.88-.6,1.07-1.02,6.07-13.23,16.15-28.75,25.86-39.27,18.95-20.52,40.15-38.26,64.5-52.14,20.41-11.63,42.46-18.51,65.24-23.47,14.27-3.11,28.71-4.92,43.32-5.06,19.97-.2,39.6,2.52,58.75,8.14,35.26,10.35,67.55,26.47,94.91,51.31,34.17,31.02,57.43,68.8,68.59,113.78,2.09,8.41,4.16,16.87,4.99,25.48,1.43,14.74,2.34,29.53,1.58,44.37-.71,13.99-3.71,27.57-7.28,41.05-12.7,47.92-37.8,88.36-73.86,122.13-11.5,10.76-24.05,20.24-37.7,28.08-12.45,7.15-25.82,12.27-39.79,15.76-20.13,5.04-40.47,8.84-61.12,10.94-50.75,5.17-96.88-7.44-138.64-36.37-25.13-17.41-46.6-38.56-63.56-64.11-.4-.61-1.02-1.13-1.02-2.28,5.93.52,11.86.61,17.79.68,14.33.16,28.62-.5,42.91-1.6,11.52-.88,23.05-1.67,34.51-3.12,35.4-4.48,69.26-14.22,101.38-29.88,15.27-7.44,30.12-15.56,43.64-25.93,9.24-7.09,17.47-15.13,23.78-24.99,4.37-6.83,7.61-14.11,8.65-22.28,1.99-15.77-7.58-27.04-23.47-27.45-6.62-.17-12.97,1.27-19.19,3.36-8.47,2.84-16.49,6.75-24.49,10.67-16.14,7.9-32.52,15.18-49.83,20.21-17.71,5.15-35.79,7.85-54.19,8.48-17.11.59-34.16-.53-51.2-1.72-16.54-1.15-33.06-2.54-49.62-3.52-7.62-.45-15.18-1.87-22.79-2.59-14.68-1.39-28.46-5.92-41.92-11.62-2.42-1.02-4.74-2.3-7.04-3.58-5.74-3.18-9.18-7.97-10.28-14.51-.94-5.58-1.37-11.18-1.43-16.84.39,0,.73-.09.81.01,9.11,11.73,21.1,19.54,34.54,25.35,11.63,5.03,23.91,7.44,36.43,8.78,12.27,1.31,24.56,1.47,36.87.83,23.29-1.21,45.25-7.38,66.09-17.73,5.05-2.51,10.19-4.86,14.87-8.7.72,1.92,1.33,3.61,1.99,5.29,1.96,4.99,5.47,8.29,10.59,9.95,6.24,2.01,12.69,3.03,19.1,4.21,10.49,1.93,20.98,3.89,31.59,5.1,2.75.31,5.51.48,8.27.41,1.23-.03,2.53.05,3.71-1.12-1.13-.88-2.41-.97-3.68-1.18-16.74-2.66-33.43-5.59-50.03-9.04-1.96-.41-3.92-.91-5.84-1.49-6.34-1.91-8.57-4.29-10.54-11.3,3.24-.48,6.41.02,9.57.29,17.51,1.53,35.01,3.21,52.58,4,35.03,1.58,66.21-9.45,94.84-28.86,4.47-3.03,8.69-6.4,12.8-9.92,5.38-4.61,10.06-9.82,13.89-15.78.88-1.37,1.7-2.77,3.4-3.3-.84-1.17-1-2.85-3.21-1.46-1.08.67-3.14-.16-4.74-.42-13.28-2.18-26.23-5.78-39.07-9.69-21.03-6.41-42.42-7.4-64.14-5.35-19.78,1.87-39.38,4.77-58.72,9.38-8.18,1.95-16.13,4.55-24.14,8.48.19-1.84,1.06-2.89,1.81-3.92,3.67-5.1,7.36-10.18,11.12-15.2,4.21-5.63,8.54-11.19,12.27-17.16,2.14-3.44,5.09-5.34,8.96-6.26,6.26-1.48,12.62-2.2,19-2.7,16.07-1.28,32.15-1.14,48.16.71,12.61,1.46,24.91,4.6,37.18,7.78,5.22,1.35,10.4,2.86,15.71,3.8.85.15,1.7.48,2.96.05-2.19-.89-4.06-1.79-6.02-2.42-14.1-4.54-28.23-8.94-42.83-11.66-15.28-2.85-30.7-3.29-46.17-2.57-9.41.44-18.78,1.27-28.04,3.21-5.35,1.12-9.36,3.7-12.34,8.37-4.87,7.63-10.7,14.57-16.25,21.72-2.23,2.88-4.32,5.87-6.55,8.74-5.12,6.58-6.79,13.86-4.67,21.98.34,1.29.82,2.64.29,4.16-8.68-3.44-17.27-6.91-25.91-10.25-16.97-6.55-33.85-13.38-51.5-17.96-28.55-7.41-57.28-8.4-86.14-1.89-4.4.99-8.74,2.29-13.1,3.44-.83.22-1.66.63-2.55.26-.26-1.09.64-1.55,1.19-2.17,3.77-4.25,8.08-7.9,12.71-11.17,10.83-7.65,22.44-13.79,35.08-17.92,6.08-1.99,12.16-3.99,18.2-6.09,1.93-.67,1.5.66,1.69,1.87Z"/>
  <path class="cls-7" d="m244.04,570.58c-52.23-26.18-103.49-52.86-155.52-78.41,6.07-4.5,125.72-66.21,130.55-67.38.3,2.79-.54,5.48-.56,8.23-.12,15.7-.27,31.4.56,47.09.16,3.14.52,6.26,1.17,9.33,1.14,5.45,3.53,10.26,8.09,13.61,1.78,1.31,2.11,2.85,2.3,4.78,1.73,17.63,4.03,35.16,9.65,52.06,1.14,3.41,2.39,6.79,3.77,10.69Z"/>
  <path class="cls-11" d="m339.35,614.04c-13.5-.06-25.56-.22-37.42-2.83-4.66-1.03-9.28-2.21-13.79-3.77-3.22-1.11-6.19-2.69-9.06-4.54-6.19-4-7.96-9.69-6.64-16.64.89-4.72,2.82-9.1,4.56-13.54,1.24-3.15,2.73-6.21,3.55-9.52.92-3.7.05-5.52-3.68-6.45-6.45-1.62-12.97-2.95-19.46-4.41-2.2-.49-4.42-.91-6.59-1.49-4.77-1.26-9.11-7.26-9.05-12.26.02-1.67.79-2.84,1.89-3.93,2.27-2.24,4.92-3.97,7.86-5.09,5.11-1.93,10.27-3.79,15.78-4.27,3.63-.31,7.26-.58,10.9-.71,17.85-.64,35.64.53,53.43,1.83,21.79,1.59,43.56,3.51,65.42,3.77,35.96.42,69.94-7.73,102.25-23.29,8.93-4.3,17.83-8.69,26.81-12.9,6.14-2.88,12.49-5.24,19.18-6.61,3.48-.71,6.97-.93,10.49-.79,12.17.5,19.56,8.98,18.16,21.75-.78,7.14-3.67,13.53-7.43,19.55-4.08,6.55-8.97,12.48-14.83,17.46-16.1,13.69-32.88,26.43-51.96,35.83-18.21,8.97-37.37,15.27-57.01,20.22-19.63,4.95-39.56,8.28-59.68,10.17-14.98,1.41-30.01,2.76-43.67,2.45Z"/>
  <path class="cls-1" d="m322.57,436.17c12.67,3.09,25.27,6.49,38.03,9.19,14.59,3.08,29.23,6.21,44.27,5.91,1.91-.04,2.32.77,2.6,2.28,1.4,7.52,2.73,15.06,4.56,22.5.36,1.45.24,2.74-1.54,3.21-6.71,1.78-12.92,4.83-19.19,7.66-28.7,12.94-58.83,17.15-90.04,15.13-13.22-.86-26.19-2.83-38.6-7.69-11.59-4.54-21.91-11.09-30.83-19.81-2.25-2.2-4.27-4.6-5.88-7.32-3.76-6.34-3.63-12.62.37-18.81,2.07-3.2,4.72-5.86,7.73-8.17,7.73-5.94,16.54-9.32,26.07-11.06,11.89-2.17,23.63-.96,35.91,1.19-1.96,1.2-3.43,2.1-4.91,2.99-4.09,2.45-6.16,6.12-6.55,10.81-.42,5.15.76,10.01,2.97,14.59,7.32,15.16,18.65,26.28,33.97,33.29,3.54,1.62,7.21,2.84,11.13,3.36,8.63,1.14,18.57-5.59,18.66-16.23.05-5.97-1.62-11.39-4.45-16.52-5.14-9.33-12.56-16.55-21.22-22.58-1.54-1.07-3.17-2.04-4.75-3.05.01-1.36.8-1.23,1.7-.88Z"/>
  <path class="cls-1" d="m599.61,427.41c-2.36,3.5-5.1,6.08-7.76,8.67-16.2,15.79-34.6,28.16-55.99,35.88-10.52,3.8-21.13,7.2-32.32,8.4-9.15.98-18.3.79-27.46.28-13.92-.78-27.77-2.36-41.66-3.41-5.26-.4-10.54-.64-15.81-.35-1.7.09-2.4-.39-2.78-2.12-2.73-12.38-5.16-24.81-7.26-37.32-.12-.74-.13-1.5-.14-2.25-.11-4.99-.1-4.95,4.55-6.44,26.89-8.64,54.46-13.75,82.57-16.04,12.79-1.04,25.57-1.3,38.36.14,10.77,1.21,21.14,4.2,31.51,7.17,8.44,2.42,16.9,4.72,25.59,6.16,2.71.45,5.52.12,8.62,1.23Z"/>
  <path class="cls-12" d="m406.2,450.01c-6.62-.32-13.1-1.73-19.63-2.8-23.44-3.85-46.31-10.2-69.35-15.84-11.34-2.78-22.78-5.15-34.44-6.14-9.69-.82-19.34-.57-28.79,2-12.4,3.37-23.4,8.98-31.07,19.81-1.09-.7-.6-1.67-.62-2.44-.15-5.9,0-11.82-.78-17.68-.24-1.77.07-2.59,2-3.16,22.1-6.61,44.67-9.43,67.7-8.43,19.46.85,38.23,5.11,56.57,11.56,15.62,5.49,30.95,11.78,46.55,17.34,3.3,1.18,6.67,2.19,10.05,3.13,1.39.38,2.36.78,1.82,2.66Z"/>
  <path class="cls-2" d="m233.48,506.78c5.32,2.47,10.28,4.83,15.5,6.53.76.25,1.33.66,1.4,1.56.03.37.15.74.25,1.1.63,2.42,2.25,5.15,1.62,7.17-.66,2.1-4.16,2.26-6.29,3.56-3.12,1.92-5.91,4.15-8.2,7.88-2.31-9.44-3.04-18.44-4.27-27.79Z"/>
  <path class="cls-2" d="m328.37,453.86c.14,5.84-6.19,9.79-11.33,7.07-1.93-1.02-3.41-2.53-4.54-4.4-.47-.78-.67-1.89-2.16-1.15-.95.47-.86-.68-.74-1.11.64-2.28,1.12-4.66,2.15-6.75,1.27-2.57,3.77-3.61,6.59-3.59,5.06.04,9.92,4.9,10.03,9.94Z"/>
  <path class="cls-14" d="m272.43,519.56c-4.66.73-9.28,1.21-13.76,2.43-1.65.45-2.39-.07-2.47-1.7-.08-1.49-1.01-2.84-.68-4.75,5.64,1.49,11.26,2.88,16.91,4.01Z"/>
  <path class="cls-4" d="m304.61,463.95c.08,2.76-.36,3.14-2.06,2.3-.8-.39-1.65-.46-2.42-.86-2.21-1.15-2.95-3.6-1.61-5.67.78-1.22,1.93-1.45,3.24-.8,2.48,1.23,3.05,3.4,2.85,5.03Z"/>
  <path class="cls-9" d="m333.03,481.52c.13,1.44-1.24,2.94-2.73,2.98-1.48.04-2.98-1.46-3.14-3.15-.11-1.1.45-1.6,1.5-1.66,2.45-.14,4.27.62,4.38,1.83Z"/>
  <path class="cls-6" d="m322.57,436.17c-.56.31-1.49-.09-1.7.88-1.38-.17-2.43-.88-3.59-2.13,2.09.02,3.76.3,5.29,1.25Z"/>
  <path class="cls-7" d="m743.98,595.23c21.68,55.1,45.15,109.25,68.22,164.39-57.6-13.52-114.15-28.19-171.31-40.66,46.17-31.41,80.17-72.73,103.09-123.73Z"/>
  <path class="cls-7" d="m754.66,407.61c52.72,23.97,104.8,49.03,157.3,73.71-52.95,28.19-104.64,58.87-157.85,87.69,18.23-53.86,15.71-107.43.54-161.4Z"/>
  <path class="cls-7" d="m579.62,234.94c-53.45-15.29-106.31-15.47-159.81-1.15,25.03-52.85,50.33-105.31,74.95-158.37,26.96,53.84,56.41,106.19,84.86,159.52Z"/>
  <path class="cls-7" d="m740.76,376.88c-12.42-25.97-28.36-48.61-46.71-69.52-18.45-21.01-40.22-38.12-64.48-52.54,54.86-20.94,110.55-39.04,165.99-59.54-16.78,60.89-36.47,120.64-54.81,181.6Z"/>
  <path class="cls-7" d="m418.28,745.31c12.71,3.97,25.13,6.9,37.72,9.22,17.39,3.2,34.92,4.09,52.54,3.4,21.77-.85,43.21-4.28,64.49-8.78,2.17-.46,4.23-1.47,6.96-1.56-27.46,51.89-54.74,103.44-82.4,155.73-26.66-52.94-52.2-105.63-79.31-158.01Z"/>
  <path class="cls-7" d="m254.05,377.63c-20.04-54.36-40.28-108.04-61.4-162.16,55.57,15.22,110.92,29.22,166.9,43.64-11.65,7.19-22.6,14.53-32.71,23.08-10.29,8.71-19.6,18.36-28.43,28.51-8.75,10.06-16.66,20.75-24.13,31.77-7.48,11.02-14.04,22.58-20.23,35.16Z"/>
  <path class="cls-7" d="m263.78,620.81c29.07,43.75,63.73,80.98,110.55,106.14-55.22,17.39-110.48,33.73-165.73,52.08,18.77-52.66,36.7-105.3,55.18-158.22Z"/>
  <path class="cls-8" d="m338.49,601.43c-11.73,0-22.76-.56-33.71-2.22-4.15-.63-7.95-2.19-11.45-4.56-4.24-2.88-6.12-6.81-5.71-11.91.19-2.39.71-4.71,1.32-7.02.9-3.4,1.68-6.83,2.72-10.18,1.27-4.1-.34-7.09-3.36-9.6-2.16-1.8-4.75-2.77-7.41-3.57-5.32-1.59-10.82-2.16-16.28-2.99-4.26-.65-8.38-1.64-11.95-4.21-2.21-1.59-2.51-3.6-.86-5.77,1.34-1.77,3.29-2.69,5.3-3.45,6.74-2.55,13.78-2.99,20.8-2.15,12.1,1.45,24.27,2.05,36.37,3.41,9.85,1.1,19.71,2.2,29.57,3.25,15.4,1.64,30.84,1.58,46.29,1.03,16.09-.58,32-2.85,47.83-5.68,6.81-1.22,13.31-3.62,19.96-5.46,8.22-2.28,16.38-4.79,24.64-6.93,13.89-3.59,27.15-8.99,40.67-13.65,6.88-2.37,13.77-4.72,20.97-5.99,2.63-.46,5.26-.52,7.88-.37,5.3.31,8.2,3.64,7.91,8.95-.25,4.55-2.24,8.49-4.79,12.1-4.44,6.29-9.7,11.86-15.71,16.67-8.86,7.08-18.59,12.82-28.53,18.23-23.47,12.77-47.88,23.18-73.93,29.48-14.06,3.4-28.34,5.42-42.66,7.21-7.72.96-15.42,2.12-23.12,3.21-11.09,1.57-22.23,2.27-32.75,2.15Z"/>
  <path class="cls-8" d="m519.83,472.42c-10.94-.51-20.94-3.56-29.29-11-3-2.67-6.08-5.24-8.54-8.46-2.86-3.73-5.07-7.77-6.12-12.38-1.6-7-.07-13.16,5.02-18.36,6.11-6.25,13.71-8.96,22.2-8.16,16.9,1.59,29.22,10.43,37.3,25.2,2.32,4.25,3.32,8.95,2.73,13.83-1.29,10.8-9.36,18.45-20.28,19.31-1,.08-2.01.01-3.01.01Z"/>
  <path class="cls-3" d="m506.34,437.97c.09-4.93,3.61-8.67,8.07-8.56,4.21.1,7.17,3.7,7.05,8.57-.1,4.2-3.94,7.86-8.13,7.76-4.02-.1-7.06-3.48-6.99-7.77Z"/>
  <path class="cls-3" d="m484.32,436.46c-.03-2.86,1.72-5.46,4.13-6.18,2.48-.75,5.79.64,7.39,3.35,1.32,2.24,1.8,4.73.54,7.18-1.24,2.4-3.47,3.06-6,3.15-2.45.09-3.99-1.17-5.1-3.19-.76-1.37-.76-2.89-.94-4.32Z"/>
  <path class="cls-13" d="m513.84,461.11c.14-1.03.74-1.58,1.75-1.57,1.21.01,1.84.75,1.77,1.91-.06,1-.79,1.6-1.75,1.59-1.19,0-1.74-.78-1.76-1.93Z"/>
</svg>