<?xml version="1.0" encoding="UTF-8"?>
<svg id="Capa_1" data-name="Capa 1" xmlns="http://www.w3.org/2000/svg" viewBox="0 0 1000 1000">
  <defs>
    <style>
      .cls-1 {
        fill: #fefefe;
      }

      .cls-1, .cls-2, .cls-3, .cls-4, .cls-5, .cls-6, .cls-7, .cls-8, .cls-9, .cls-10, .cls-11 {
        stroke-width: 0px;
      }

      .cls-2 {
        fill: #fdfefe;
      }

      .cls-3 {
        fill: #f9fafa;
      }

      .cls-4 {
        fill: #808b8b;
      }

      .cls-6 {
        fill: #ebeded;
      }

      .cls-7 {
        fill: #fff;
      }

      .cls-8 {
        fill: #ffe45f;
      }

      .cls-9 {
        fill: #e6eded;
      }

      .cls-10 {
        fill: #eeba33;
      }

      .cls-11 {
        fill: #010000;
      }
    </style>
  </defs>
  <path class="cls-11" d="m183.85,591.26c-6.64-2.36-13.49-3.18-20.2-4.58-6.38-1.33-12.91-2.03-19.08-4.27-9.2-3.35-15.29-9.42-17.03-19.39-1.16-6.64.51-12.18,5.69-16.61,3.91-3.34,8.3-5.89,13.08-7.68,2.34-.88,3.05-1.9,2.17-4.4-1.27-3.57-1.12-8.16-3.39-10.69-2.27-2.54-6.77-3.07-10.3-4.49-6.08-2.45-11.76-5.55-17.25-9.18-8.48-5.61-12.85-13.56-14.64-23.24-1.33-7.17-1.44-14.45-1.89-21.69-1.42-23.05-1.24-46.1.08-69.15.11-1.99.29-3.99.37-5.98.06-1.36.27-2.71,1.86-2.86,2.84-.26,3.63-2.49,4.86-4.46,4.21-6.68,9.74-12.15,15.92-17,25.31-19.9,53.95-32.49,85.44-38.71,2.84-.56,4.34-1.78,5.57-4.31,6.35-13.06,13.06-25.93,21.02-38.12,12.56-19.23,28.98-34.86,46.23-49.7,40.28-34.64,86.49-58.12,137.28-73.18,33.23-9.86,67.06-14.29,101.62-12.97,28.14,1.07,55.41,6.97,81.95,16.23,35.4,12.35,69.36,27.83,100.6,48.73,36.52,24.45,64.93,56.55,88.29,93.61,25.62,40.66,40.78,84.79,47.06,132.26,3.11,23.49,3.98,47.06,2.75,70.66-1.12,21.46-5.95,42.36-11.82,62.99-18.54,65.09-52.83,120.68-101.28,167.69-10.97,10.64-23.01,20.03-35.62,28.66-2.4,1.65-2.25,5.06-5.47,6.18-3.02,1.05-5.62,3.27-8.46,4.88-2.84,1.62-5.73,3.13-8.61,4.67-3.04,1.63-6.07,3.26-9.12,4.86-2.89,1.52-5.78,3.04-8.69,4.51-2.91,1.47-5.84,2.92-8.8,4.29-2.96,1.37-5.95,2.69-8.96,3.95-16.16,6.78-33.16,10.56-50.26,13.86-19.77,3.82-39.58,7.47-59.66,9.33-18.83,1.74-37.66,2.07-56.57.79-22-1.49-43.56-5.13-64.56-11.81-44.93-14.29-84.73-37.67-120.12-68.62-24.71-21.62-46.9-45.54-64.78-73.22-1.24-1.92-2.79-2.62-4.82-3.02-4.81-.95-9.53-2.23-14.19-3.76-9.43-3.09-16.99-8.83-23.36-16.3-4.38-5.13-5.84-11.16-5.53-17.74.51-10.9,4.25-20.91,8.51-30.78,1.42-3.29,3.45-6.34,4.13-10.24Z"/>
  <path class="cls-8" d="m377.51,398.43c.82-3.1,2.14-4.82,3.37-6.54,4.56-6.34,9.13-12.67,13.82-18.91,6.76-9,13.68-17.91,19.7-27.43,2.91-4.59,6.85-7.28,12.05-8.57,9.38-2.32,18.95-3.36,28.54-4.11,22.87-1.78,45.75-1.59,68.55.98,17.16,1.93,33.91,6.08,50.61,10.35,8.96,2.29,17.83,4.92,26.94,6.56,1.05.19,2.12.3,3.39-.2-2.85-1.16-5.64-2.52-8.57-3.45-20.41-6.49-40.84-12.9-61.95-16.78-21.92-4.03-44.03-4.68-66.23-3.65-13.61.63-27.16,1.83-40.55,4.62-7.73,1.61-13.59,5.24-17.92,12.01-7.34,11.49-16.17,21.91-24.47,32.71-3.1,4.03-6.03,8.19-9.11,12.23-6.94,9.11-9.13,19.19-6.35,30.32.52,2.09,1.02,4.18.8,6.83-8.01-3.2-15.68-6.31-23.38-9.31-26.7-10.41-53.26-21.21-80.78-29.39-38.38-11.4-77.39-13.87-116.96-8.15-11.52,1.66-22.67,4.99-33.9,7.95-1.38.36-2.71,1.07-4.22.67-.71-1.62.75-2.25,1.49-3.09,5.56-6.29,11.99-11.61,18.79-16.5,18.63-13.39,39.24-22.62,61.08-29.31,5.38-1.65,10.69-3.49,16.02-5.28,2.74-.92,1.57,1.29,2.05,2.82,2.45-2.54,4.33-5.41,7.41-6.86.46-.22.92-.67,1.15-1.12,9.61-19.24,16.31-30.28,27.6-45.08,10.74-14.07,23.44-26.29,36.39-38.25,27.14-25.09,57.3-45.75,90.86-61.29,11.36-5.26,23.35-8.99,35.3-12.67,25.04-7.7,50.6-13.1,76.73-15.31,31.38-2.65,62.45-.15,92.98,7.5,56.01,14.02,106.84,38.57,149.88,77.42,49.53,44.7,83.12,99.4,99.29,164.44,3.02,12.16,6.01,24.39,7.23,36.83,2.09,21.31,3.39,42.7,2.31,64.15-1.02,20.23-5.35,39.86-10.51,59.37-18.33,69.3-54.6,127.79-106.72,176.64-16.61,15.57-34.77,29.27-54.5,40.63-18,10.36-37.32,17.76-57.51,22.83-29.28,7.35-58.87,12.88-88.92,15.91-78.79,7.93-149.1-13.83-211.87-61.14-30.96-23.33-57.93-50.67-79.38-83.17-.87-1.32-2.28-2.4-2.19-4.29,21.97,1.68,43.95,1.38,65.87.17,25.2-1.38,50.4-3.13,75.43-6.42,56.54-7.44,109.95-24.81,160.32-51.56,16.38-8.7,32.24-18.23,46.9-29.66,14.6-11.39,27.38-24.42,36.5-40.7,4.65-8.3,7.99-17.05,9.2-26.59,2.93-23.13-11.02-39.41-34.3-39.86-9.39-.18-18.39,1.86-27.22,4.81-12.43,4.15-24.18,9.88-35.91,15.64-23.65,11.61-47.7,22.22-73.12,29.48-25.1,7.17-50.72,10.93-76.78,11.84-24.55.86-49.03-.73-73.5-2.42-24.28-1.68-48.53-3.74-72.83-5.17-10.84-.64-21.58-2.68-32.41-3.7-21.22-2-41.15-8.54-60.63-16.74-4.69-1.97-9.22-4.29-13.41-7.21-5.42-3.77-9.19-8.7-10.85-15.16-2.38-9.31-2.97-18.76-2.91-29.57,5.73,7.48,11.39,13.22,17.74,18.31,20.48,16.43,43.96,25.99,69.66,30.16,34.69,5.62,69.42,5.78,104.01-.93,26.99-5.23,52.06-15.64,75.94-29.06,2.34-1.31,4.49-2.97,6.9-4.6.73,2.11,1.38,3.96,2.01,5.82,3.03,9.02,9.32,14.44,18.43,16.87,8.25,2.2,16.64,3.73,25.03,5.25,15.35,2.78,30.69,5.72,46.22,7.39,3.78.41,7.61.5,11.42.56,1.91.03,4.01.24,5.57-1.81-3.74-1.9-7.81-1.83-11.67-2.47-23.46-3.92-46.9-7.87-70.12-13.06-2.12-.47-4.23-1.06-6.28-1.78-7.83-2.76-11.4-7.07-13.17-15.88,4.19-.47,8.34.07,12.46.44,24.95,2.26,49.91,4.45,74.94,5.86,44.02,2.5,84.43-9.1,122.33-30.77,14.39-8.23,27.8-17.86,39.98-29.14,6.03-5.58,11.17-11.92,15.69-18.77.98-1.48,1.64-3.23,3.39-4.14.62-.32,2.71-.46.87-1.88-.75-.58-.17-3.53-2.75-1.42-2.16,1.77-4.92.32-7.34-.08-14.34-2.37-28.41-5.92-42.39-9.87-13.79-3.89-27.5-8.12-41.67-10.55-14.2-2.44-28.5-3.41-42.87-2.81-37.67,1.57-74.83,6.8-111.44,15.84-10.6,2.62-20.82,6.27-31.6,11.45Z"/>
  <path class="cls-10" d="m274.97,668.21c-19.66-.08-37.27-.29-54.61-4.11-6.74-1.49-13.41-3.21-19.94-5.46-4.66-1.61-8.94-3.92-13.09-6.59-8.76-5.65-11.33-13.75-9.62-23.57,1.19-6.84,3.98-13.19,6.51-19.6,1.47-3.71,3.08-7.38,4.4-11.14,3-8.58,1.59-11.2-7.11-13.18-8.67-1.97-17.38-3.78-26.07-5.68-3.01-.66-6.03-1.24-9-2.04-6.85-1.85-13.15-10.66-12.98-17.81.05-1.96.69-3.56,2.05-4.86,5.05-4.84,10.76-8.42,17.75-9.93,3.47-.75,6.67-2.5,10.21-3.25,7.52-1.59,15.17-1.71,22.76-2.03,25.81-1.09,51.53.71,77.26,2.59,31.32,2.29,62.62,5.09,94.05,5.43,47.56.52,93.04-8.94,136.49-28.3,14.76-6.58,29.14-13.95,43.73-20.88,11.16-5.3,22.46-10.23,34.67-12.72,5.03-1.02,10.08-1.34,15.17-1.12,17.72.77,28.21,13.22,26.15,31.54-1.16,10.32-5.33,19.55-10.77,28.26-5.81,9.31-12.75,17.76-21.06,24.86-23.65,20.21-48.38,38.92-76.52,52.65-25.72,12.55-52.73,21.46-80.4,28.47-28.9,7.32-58.26,12.24-87.91,14.99-21.31,1.97-42.68,3.92-62.11,3.49Z"/>
  <path class="cls-7" d="m250.3,411.03c18.32,4.47,36.54,9.39,54.98,13.28,21.09,4.46,42.26,8.98,64.02,8.55,2.76-.05,3.36,1.11,3.77,3.29,2.03,10.88,3.95,21.78,6.59,32.54.51,2.1.34,3.96-2.23,4.64-9.7,2.57-18.68,6.98-27.75,11.07-41.5,18.71-85.06,24.8-130.19,21.88-19.11-1.24-37.88-4.09-55.81-11.12-16.76-6.57-31.69-16.03-44.58-28.64-3.26-3.18-6.18-6.66-8.51-10.59-5.44-9.17-5.25-18.25.53-27.19,2.99-4.62,6.83-8.47,11.18-11.82,11.18-8.59,23.91-13.48,37.7-16,17.2-3.14,34.16-1.39,51.93,1.73-2.84,1.73-4.96,3.04-7.1,4.32-5.91,3.55-8.91,8.85-9.46,15.64-.61,7.45,1.1,14.48,4.3,21.1,10.58,21.92,26.97,38.01,49.12,48.13,5.12,2.34,10.42,4.11,16.09,4.86,12.48,1.65,26.85-8.08,26.97-23.47.07-8.63-2.35-16.47-6.44-23.89-7.43-13.49-18.16-23.93-30.69-32.64-2.23-1.55-4.58-2.94-6.87-4.41.02-1.97,1.16-1.77,2.46-1.28Z"/>
  <path class="cls-7" d="m650.23,398.07c.32,1.71-.82,2.5-1.65,3.4-26.33,28.79-57.48,50.29-94.57,62.97-12.73,4.35-25.51,8.26-38.89,10.05-14.3,1.91-28.62,1.6-42.95.81-20.12-1.11-40.15-3.41-60.24-4.93-7.42-.56-14.87-.87-22.32-.52-2.46.12-3.88-.17-4.52-3.11-3.88-17.73-7.34-35.54-10.4-53.42-.24-1.42-.25-2.89-.26-4.34-.07-6.56.07-6.62,6.13-8.58,36.4-11.81,73.78-18.89,111.78-22.68,21.16-2.11,42.38-2.86,63.61-.41,15.57,1.8,30.57,6.08,45.56,10.39,12.2,3.5,24.45,6.81,37,8.89,3.91.65,7.98.23,11.73,1.49Z"/>
  <path class="cls-8" d="m371.39,431.12c-11.97-.88-23.32-3.29-34.74-5.25-31.7-5.42-62.64-14.15-93.85-21.73-16.59-4.03-33.3-7.53-50.34-8.97-20.59-1.74-40.63.35-59.49,9.57-10.26,5.01-19.36,11.47-25.92,21.05-.3.44-.63.87-1.31.67-.72-.48-.43-1.26-.44-1.92-.19-9.08.04-18.18-1.17-27.2-.32-2.42.24-3.43,2.71-4.18,32.12-9.69,64.93-13.75,98.42-12.26,29.25,1.3,57.44,7.84,84.84,17.94,21.27,7.84,42.49,15.83,63.72,23.76,4.93,1.84,9.92,3.52,15.06,4.65,2,.44,2.82,1.37,2.5,3.86Z"/>
  <path class="cls-1" d="m247.23,448.34c-4.05-.11-7.52-2.77-10.57-6.38-1.14-1.34-1.01-4.74-4.46-3.07-.72.35-.84-1.04-.68-1.58,1.02-3.45,1.82-7.03,3.35-10.25,1.65-3.49,6.71-5.38,10.82-4.73,6.28,1,11.67,6.29,12.81,12.55,1.15,6.37-4.2,13.32-11.26,13.47Z"/>
  <path class="cls-8" d="m177.82,531.56c-6.76,1.13-13.61,1.85-20.28,3.62-1.34.35-2.74.47-2.93-1.28-.29-2.64-1.7-5.12-1.33-8.19,8.26,2.29,16.27,4.32,24.54,5.85Z"/>
  <path class="cls-3" d="m224.18,451.16c.25,4.43.14,4.52-3.22,3.19-1.31-.52-2.73-.88-3.91-1.61-2.57-1.59-3.22-5.75-1.29-8.03,1.16-1.37,2.7-1.71,4.36-.84,3.22,1.7,4.69,4.32,4.06,7.29Z"/>
  <path class="cls-6" d="m265.44,476.76c.07,2.13-1.97,4.18-4.13,4.14-2.15-.04-4.28-2.33-4.38-4.72-.07-1.62.84-2.2,2.34-2.23,3.93-.07,6.11.91,6.17,2.81Z"/>
  <path class="cls-4" d="m250.3,411.03c-.81.44-2.15-.14-2.46,1.28-1.99-.24-3.52-1.28-5.2-3.08,3.02.02,5.44.44,7.65,1.81Z"/>
  <path class="cls-5" d="m273.54,649.98c-17.02,0-33.15-.77-49.16-3.25-6.37-.99-12.19-3.44-17.39-7.33-5.04-3.77-7.45-8.72-7.27-15.02.11-3.85.9-7.56,1.86-11.25,1.33-5.09,2.52-10.23,4.06-15.25,1.76-5.72-.51-9.91-4.64-13.46-3.23-2.78-7.15-4.24-11.18-5.43-7.69-2.28-15.65-3.09-23.54-4.3-5.97-.92-11.76-2.34-16.81-5.85-3.63-2.52-3.98-5.79-1.04-9.12,2.12-2.39,4.97-3.61,7.88-4.67,9.43-3.42,19.26-4.05,29.03-2.89,21.64,2.57,43.43,3.5,65.04,6.28,16.03,2.06,32.07,3.97,48.22,4.73,23.06,1.08,46.1.83,69.12-1.18,16.47-1.44,32.8-3.93,49.06-6.83,10.93-1.95,21.39-5.68,31.99-8.82,24.17-7.16,48.81-12.76,72.39-21.9,12.01-4.65,24.15-8.99,36.54-12.57,7.51-2.18,15.08-3.97,23.01-3.7,9.33.32,14.02,5.63,12.7,14.88-.84,5.87-3.47,11.08-6.87,15.84-6.36,8.91-13.84,16.83-22.35,23.71-9.48,7.67-19.75,14.2-30.31,20.26-37.32,21.43-76.32,38.82-118.31,48.99-20.32,4.92-40.98,7.83-61.7,10.39-11.16,1.38-22.29,3.08-33.43,4.66-15.85,2.24-31.78,3.23-46.94,3.08Z"/>
  <path class="cls-5" d="m535.26,463.46c-15.82-.8-30.24-5.32-42.29-16.09-4.47-3.99-9.04-7.85-12.64-12.7-4.61-6.21-7.93-12.96-8.96-20.73-1.15-8.67,1.37-16.14,7.29-22.48,8.93-9.55,20.23-13.6,32.94-12.38,24,2.31,41.57,14.91,53.31,35.69,3.63,6.42,5.22,13.56,4.26,21-2.01,15.61-13.75,26.56-29.56,27.68-1.44.1-2.9.01-4.35.01Z"/>
  <path class="cls-2" d="m516.02,413.6c.13-7.12,5.23-12.52,11.69-12.36,6.08.15,10.36,5.37,10.17,12.42-.16,6.07-5.73,11.36-11.78,11.2-5.81-.16-10.19-5.06-10.08-11.25Z"/>
  <path class="cls-2" d="m492.86,422.27c-5.27.01-8.65-4.26-8.68-10.99-.02-5,3.64-9.05,8.19-9.06,5.3-.01,10.19,5.41,10.25,11.39.06,5.15-3.88,8.65-9.76,8.67Z"/>
  <path class="cls-9" d="m529.53,444.8c1.64.16,2.45,1.13,2.43,2.5-.02,1.69-1.13,2.68-2.81,2.54-1.73-.15-2.45-1.4-2.21-3.04.22-1.47,1.28-2.06,2.59-2Z"/>
</svg>